# xmcd
#
# Track frame offsets:
#	150
#	24712
#	41122
#	62572
#	89529
#	106727
#	121129
#	136904
#	153259
#	175432
#	187959
#	205979
#	226989
#
# Disc length: 3196 seconds
#
# Revision: 0
# Processed by: cddbd v1.5.2PL0 Copyright (c) Steve Scherf et al.
# Submitted via: dBpowerAMP V4.0
#
DISCID=aa0c7a0d
DTITLE=DMC 40 Aþk Þarkýsý Disc 2 - 40 Aþk Þarkýsý Disc 2
DYEAR=2007
DGENRE=Ballad
TTITLE0=Gökhan Özen-Her Þeyde Biraz Sen Varsýn
TTITLE1=Ajda Pekkan-Mucize
TTITLE2=Kenan Doðulu-Dön Gel
TTITLE3=Sezen Aksu-Ýstanul Ýstanbul Olalý
TTITLE4=Yüksek Sadakat-Döneceksin Diye Söz ver
TTITLE5=MFÖ-Vurgun yedim
TTITLE6=Ferhat Göçer-Sevgisiz Olmaz
TTITLE7=Ýlhan Þeþen-Kaldým Odalarda
TTITLE8=Hande Yener-Senden Ýbadet
TTITLE9=Çoþkun Demir-Vakit Akþam Oldumu
TTITLE10=Lava-Gidersen
TTITLE11=Onur Baþtürk-Gidenlerden
TTITLE12=Ahmet Koç-Love Story
EXTD=
EXTT0=
EXTT1=
EXTT2=
EXTT3=
EXTT4=
EXTT5=
EXTT6=
EXTT7=
EXTT8=
EXTT9=
EXTT10=
EXTT11=
EXTT12=
PLAYORDER=
